<?xml version="1.0" encoding="UTF-8" standalone="no"?>
<svg
   fill="none"
   version="1.1"
   width="512"
   height="512"
   viewBox="0 0 512 512"
   id="svg30"
   sodipodi:docname="raven3-limpio.svg"
   inkscape:version="1.4.2 (ebf0e940, 2025-05-08)"
   xmlns:inkscape="http://www.inkscape.org/namespaces/inkscape"
   xmlns:sodipodi="http://sodipodi.sourceforge.net/DTD/sodipodi-0.dtd"
   xmlns="http://www.w3.org/2000/svg"
   xmlns:svg="http://www.w3.org/2000/svg">
  <sodipodi:namedview
     id="namedview30"
     pagecolor="#ffffff"
     bordercolor="#000000"
     borderopacity="0.25"
     inkscape:showpageshadow="2"
     inkscape:pageopacity="0.0"
     inkscape:pagecheckerboard="0"
     inkscape:deskcolor="#d1d1d1"
     inkscape:zoom="1.625"
     inkscape:cx="223.07692"
     inkscape:cy="255.69231"
     inkscape:window-width="1920"
     inkscape:window-height="1052"
     inkscape:window-x="1728"
     inkscape:window-y="37"
     inkscape:window-maximized="0"
     inkscape:current-layer="svg30" />
  <defs
     id="defs1" />
  <g
     id="g3"
     transform="matrix(1.6946474,0,0,1.6946474,-195.51321,-199.31953)">
    <path
       d="m 301.305,156.70707 c 5.871,4.8528 10.269,10.4737 13.695,17.2929 0,0.99 0,1.98 0,3 0.718,0.0142 1.436,0.0284 2.176,0.043 19.395,0.8937 38.888,7.2842 53.824,19.957 0.801,0.593 1.601,1.186 2.426,1.7969 9.941,8.5077 17.121,23.2796 18.574,36.2031 0.053,2.6697 0.031,5.3293 0,8.0002 -0.541,-0.121 -1.082,-0.243 -1.639,-0.367 -26.76,-5.8324 -58.595,-7.3987 -83.138,6.996 -7.101,5.092 -11.965,11.92 -14.223,20.371 -1.191,13.769 0.561,25.45 9.09,36.75 5.708,6.723 11.934,10.628 19.91,14.25 1.336,0.661 2.67,1.326 4,2 -6.753,4.502 -16.868,4.963 -24.727,3.488 -0.75,-0.161 -1.5,-0.322 -2.273,-0.488 3.208,5.678 6.244,10.482 11,15 1.573,2.012 3.079,4.06 4.57,6.133 1.364,1.781 2.807,3.321 4.43,4.867 -7.115,-0.386 -13.354,-1.391 -20,-4 -2.605,2.604 -2.013,8.373 -2.133,11.832 0.015,7.441 0.139,14.78 1.133,22.168 -14.5,-6.556 -27.094,-15.642 -36,-29 -0.33,6.6 -0.66,13.2 -1,20 -8.935,-6.702 -8.935,-6.702 -12.5,-10.438 -3.301,-3.38 -6.686,-6.541 -10.2695,-9.617 -2.7892,-2.432 -5.5096,-4.937 -8.2305,-7.445 -3.9584,-3.645 -7.9518,-7.239 -12.0156,-10.766 -2.3059,-2.015 -4.5838,-4.06 -6.8594,-6.109 -0.834,-0.749 -1.668,-1.498 -2.5273,-2.27 -1.7967,-1.629 -3.5798,-3.273 -5.3516,-4.929 -1.3284,-1.232 -1.3284,-1.232 -2.6836,-2.489 -0.8031,-0.754 -1.6062,-1.508 -2.4336,-2.285 -2.0747,-1.959 -2.0747,-1.959 -5.1289,-1.652 -1.8673,1.991 -1.8673,1.991 -3.6875,4.562 -6.7638,8.743 -14.172,15.475 -25.3125,17.438 0.2166,-0.967 0.4331,-1.934 0.6562,-2.93 2.6772,-12.304 2.9918,-21.171 -0.8769,-33.183 -1.1286,-3.506 -1.7793,-6.164 -1.7793,-9.887 -4.95,1.98 -4.95,1.98 -10,4 -0.59087,-14.329 0.47786,-25.956 7,-39 -4.62,1.65 -9.24001,3.3 -14,5 1.80762,-13.311 5.63173,-25.1734 12,-37.0002 -5.94,0.99 -5.94,0.99 -12,2 5.85472,-13.8778 16.7591,-24.966 27.0508,-35.7422 2.167,-2.0129 2.167,-2.0129 1.9492,-4.2578 -2.64,-0.99 -5.28,-1.98 -8,-3 8.5631,-8.5631 25.0208,-13.2163 36.9375,-13.25 1.3553,0.0617 2.7106,0.1355 4.0625,0.25 -2.1086,2.1086 -3.6796,2.8457 -6.375,4.0625 -9.8689,4.8489 -18.1865,11.9084 -25.625,19.9375 0.8198,-0.3003 1.6397,-0.6007 2.4844,-0.9101 1.0776,-0.3803 2.1553,-0.7606 3.2656,-1.1524 1.0673,-0.3828 2.1347,-0.7657 3.2344,-1.1601 2.9384,-0.7575 4.2391,-0.8489 7.0156,0.2226 -1.0693,0.6362 -1.0693,0.6362 -2.1602,1.2852 -13.244,8.1104 -22.5978,18.8898 -27.8398,33.7148 -0.871,3.6474 -1.5182,7.2822 -2,11 0.4499,-0.629 0.8998,-1.2581 1.3633,-1.9062 5.0773,-6.7562 10.5938,-11.4589 17.6367,-16.0938 0,3.3498 -0.7371,5.0651 -2.0625,8.125 -0.4525,1.0661 -0.9049,2.1321 -1.3711,3.2305 -0.8112,1.8874 -1.6229,3.7746 -2.4419,5.6587 -6.7624,15.605 -9.6406,28.953 -9.1245,45.986 1.32,-2.31 2.64,-4.62 4,-7 0.33,0 0.66,0 1,0 0.0258,1.053 0.0516,2.106 0.0781,3.191 0.4848,13.797 3.3034,26.107 8.9219,38.809 3.7083,-7.713 3.7083,-7.713 2.875,-15.938 -0.3081,-0.818 -0.6162,-1.637 -0.9336,-2.48 -6.4634,-17.727 -2.9131,-37.91 4.5703,-54.731 4.5147,-8.6498 9.9252,-17.9036 18.4883,-22.8512 1.4693,-1.1317 2.9265,-2.2792 4.375,-3.4375 3.7219,-2.9426 7.4401,-5.3365 11.625,-7.5625 -11.3777,1.2846 -21.4757,6.4961 -30,14 1.8278,-7.3632 5.1359,-12.2634 10,-18 0.7425,-1.0106 1.485,-2.0212 2.25,-3.0625 6.18,-7.2944 15.1657,-12.0643 23.75,-15.9375 -1.1924,0.2888 -2.3848,0.5775 -3.6133,0.875 -1.5663,0.3752 -3.1328,0.7502 -4.6992,1.125 -0.7857,0.1908 -1.5714,0.3816 -2.3809,0.5782 -0.7573,0.1804 -1.5146,0.3609 -2.2949,0.5468 -0.6965,0.1676 -1.393,0.3352 -2.1106,0.5078 -1.9011,0.3672 -1.9011,0.3672 -4.9011,0.3672 10.1628,-11.8671 23.6236,-17.6861 38.6875,-20.75 9.9365,-0.7499 18.6465,0.5848 28.3125,2.75 -0.771,-0.5543 -1.542,-1.1086 -2.336,-1.6797 -1.003,-0.7244 -2.006,-1.4489 -3.039,-2.1953 -0.998,-0.7193 -1.995,-1.4386 -3.023,-2.1797 -2.602,-1.9453 -2.602,-1.9453 -4.602,-3.9453 1.663,-1.6634 3.783,-1.3604 6.062,-1.5625 1.379,-0.1256 1.379,-0.1256 2.786,-0.2539 0.71,-0.0606 1.42,-0.1211 2.152,-0.1836 -14.928,-10.43702 -33.3994,-12.22995 -51.1362,-9.521 -5.8864,1.119 -11.7115,2.473 -17.5181,3.9485 -2.4373,0.5949 -4.8827,1.0964 -7.3457,1.5725 2.6554,-3.1538 6.0211,-4.7276 9.6875,-6.43747 0.6548,-0.30566 1.3097,-0.61133 1.9844,-0.92626 29.0244,-12.99076 70.5041,-12.28236 96.6331,7.07083 z"
       fill="#030203"
       fill-opacity="1"
       id="path3" />
  </g>
  <g
     id="g4"
     transform="matrix(1.6946474,0,0,1.6946474,-195.51321,-199.31953)">
    <path
       d="m 307.266,149.57814 c 4.655,4.0185 8.576,7.7434 11.296,13.3594 1.995,3.2942 3.725,4.3371 7.352,5.2617 2.422,0.5061 4.849,0.9387 7.288,1.3564 23.335,3.997 43.787,15.7698 57.755,35.128 7.558,12.2682 10.402,25.1237 10.168,39.3791 -0.009,1.056 -0.018,2.113 -0.027,3.201 -0.024,2.579 -0.056,5.157 -0.098,7.736 -1.065,-0.265 -2.13,-0.531 -3.227,-0.804 -26.763,-6.574 -58.245,-10.208 -83.773,2.804 -6.689,4.192 -10.157,9.342 -12,17 -1.699,11.06 2.935,21.391 9.016,30.395 5.381,7.065 11.345,12.161 18.984,16.605 0,0.33 0,0.66 0,1 -8.365,0.775 -13.956,-1.983 -20.613,-6.949 -9.181,-7.76 -16.449,-17.741 -17.563,-29.983 -0.746,-11.582 0.234,-20.566 7.801,-29.818 13.992,-14.529 35.832,-17.132 55.067,-17.532 12.194,-0.118 24.639,0.393 36.308,4.282 0.397,-11.9177 -3.558,-23.0792 -10,-32.9997 -0.501,-0.7786 -1.003,-1.5572 -1.52,-2.3594 -11.755,-16.5888 -32.27,-23.9255 -51.48,-27.6406 -2.456,-0.2496 -4.915,-0.4816 -7.375,-0.6875 -5.115,-0.6781 -5.115,-0.6781 -7.281,-3.3711 -1.219,-2.5664 -1.219,-2.5664 -2.258,-5.2774 -4.24,-10.4004 -15.204,-16.2297 -24.984,-20.5 -25.917,-9.72701 -56.6912,-9.26843 -82.102,1.836 -3.0339,1.6088 -6.0246,3.2855 -9,5 0.5744,-0.1463 1.1489,-0.2925 1.7407,-0.4431 2.6275,-0.6674 5.2559,-1.3309 7.8843,-1.9944 0.9036,-0.2301 1.8073,-0.4602 2.7383,-0.6973 19.02,-4.7897 39.8967,-5.1853 57.6367,4.1348 2.028,1.5616 3.393,2.9911 5,5 -5.445,0.495 -5.445,0.495 -11,1 0.855,0.6264 1.709,1.2529 2.59,1.8984 1.116,0.8253 2.232,1.6508 3.348,2.4766 0.845,0.6187 0.845,0.6187 1.708,1.25 4.241,3.1484 4.241,3.1484 5.354,5.375 -1.729,-0.312 -3.458,-0.6246 -5.188,-0.9375 -0.962,-0.1741 -1.925,-0.3481 -2.917,-0.5274 -1.833,-0.3388 -3.662,-0.6983 -5.485,-1.0859 -15.081,-2.8108 -30.8026,2.4145 -43.41,10.5508 -3.6164,2.6993 -6.8714,5.751 -10,9 0.8108,-0.2772 1.6216,-0.5543 2.457,-0.8399 7.2324,-2.3659 13.9356,-3.8552 21.543,-4.1601 -2.3495,1.1921 -4.7131,2.3322 -7.1016,3.4453 -13.7939,6.5758 -26.2931,15.367 -31.9609,30.3047 -0.3094,1.0725 -0.6188,2.145 -0.9375,3.25 0.4499,-0.4473 0.8998,-0.8946 1.3633,-1.3555 7.8019,-7.3329 17.7919,-12.3177 28.6367,-12.7695 0.66,0.0412 1.32,0.0825 2,0.125 -2.0534,1.3689 -4.1263,2.7088 -6.2148,4.0234 -0.604,0.3816 -1.2079,0.7631 -1.8301,1.1562 -1.2554,0.7929 -2.5132,1.5821 -3.7735,2.3672 -2.7847,1.7676 -5.1072,3.3776 -7.4355,5.7422 -1.7461,1.711 -1.7461,1.711 -4.7461,1.711 -0.2514,0.5555 -0.5027,1.1111 -0.7617,1.6836 -1.4404,2.6945 -3.1865,4.9585 -5.0508,7.3791 -10.8733,14.865 -16.3752,34.557 -13.9209,52.933 0.9374,5.609 2.0724,11.149 3.9834,16.512 0.9323,4.341 0.1221,6.395 -1.625,10.43 -0.7232,1.715 -0.7232,1.715 -1.4609,3.465 -0.3842,0.857 -0.7683,1.714 -1.1641,2.597 -1.3923,-2.669 -2.5183,-5.298 -3.4727,-8.152 -0.2597,-0.777 -0.5194,-1.553 -0.7871,-2.354 -0.2649,-0.802 -0.5298,-1.604 -0.8027,-2.431 -0.2688,-0.799 -0.5375,-1.597 -0.8145,-2.42 -2.1723,-6.539 -3.283,-12.561 -3.6855,-19.455 -0.0432,-0.693 -0.0864,-1.386 -0.1309,-2.1 -0.1052,-1.696 -0.2063,-3.392 -0.3066,-5.088 -1.32,2.31 -2.64,4.62 -4,7 -0.33,0 -0.66,0 -1,0 -0.6771,-18.526 2.8115,-33.005 10,-50 0.7232,-1.752 0.7232,-1.752 1.4609,-3.5388 3.2771,-7.937 3.2771,-7.937 4.5391,-10.4609 -7.7618,5.1079 -13.5893,10.4343 -19,17.9997 -2.3741,-6.439 1.6995,-13.8795 4.1836,-19.8396 5.533,-11.1809 14.8959,-21.1208 25.8164,-27.1601 -5.1136,1.0681 -10.0723,2.231 -15,4 8.0969,-9.9655 18.5519,-19.8507 31,-24 -13.5603,-1.107 -26.2069,5.0449 -38,11 2.9495,1.4999 5.9149,2.8002 9,4 -5.2641,6.209 -5.2641,6.209 -7.9805,9.1289 -4.7835,5.1494 -9.1632,10.5159 -13.3945,16.1211 -0.5119,0.6734 -1.0238,1.3469 -1.5513,2.0407 -2.7969,3.7521 -5.1199,7.4296 -7.0737,11.7093 5.94,-0.99 5.94,-0.99 12,-2 -0.671,1.4018 -0.671,1.4018 -1.3555,2.832 -7.6844,16.4647 -7.6844,16.4647 -10.6445,34.1677 0.843,-0.372 1.6861,-0.745 2.5547,-1.129 1.0957,-0.473 2.1914,-0.946 3.3203,-1.433 1.6358,-0.714 1.6358,-0.714 3.3047,-1.442 0.9307,-0.328 1.8614,-0.657 2.8203,-0.996 0.66,0.33 1.32,0.66 2,1 -0.3809,0.766 -0.3809,0.766 -0.7695,1.547 -5.7449,12.135 -6.6526,23.258 -6.2305,36.453 2.97,-0.99 5.94,-1.98 9,-3 1.017,3.287 2.0137,6.579 3,9.875 0.2862,0.918 0.5723,1.836 0.8672,2.782 2.5743,8.703 2.9079,16.394 0.8828,25.281 -0.232,1.081 -0.4641,2.163 -0.7031,3.277 -1.2012,3.196 -2.0885,4.154 -5.0469,5.785 -2.1836,0.731 -2.1836,0.731 -4.4375,1.188 -0.7412,0.158 -1.4824,0.317 -2.2461,0.48 -2.4683,0.354 -4.8262,0.389 -7.3164,0.332 0.7232,-1.086 0.7232,-1.086 1.4609,-2.195 0.6317,-0.967 1.2633,-1.934 1.9141,-2.93 0.6265,-0.951 1.253,-1.902 1.8984,-2.883 3.4053,-5.901 4.0251,-10.841 3.9141,-17.492 -6e-4,-0.733 -0.001,-1.467 -0.002,-2.222 -0.0346,-4.299 -0.4641,-7.949 -1.1855,-12.278 -3.96,1.98 -7.92,3.96 -12,6 -1.3141,-5.256 -1.1842,-10.228 -1.1875,-15.625 -0.0123,-1.043 -0.0245,-2.085 -0.0371,-3.16 -0.0125,-6.689 0.7012,-12.7 2.2246,-19.215 -5.44501,0.99 -5.44501,0.99 -11,2 1.33066,-12.532 4.31761,-24.294 9,-36 -3.63,-0.33 -7.25999,-0.66 -11,-1 0.94702,-4.7349 2.42662,-8.1806 4.75,-12.3122 0.38834,-0.6914 0.77666,-1.3827 1.17676,-2.095 5.85564,-10.0455 13.47394,-19.7299 22.07324,-27.5925 0.66,0 1.32,0 2,0 0,-0.66 0,-1.32 0,-2 -0.6639,-0.1328 -1.3277,-0.2656 -2.0117,-0.4024 -4.3294,-0.8659 -8.6589,-1.7317 -12.9883,-2.5976 3.4996,-4.539 6.9583,-7.7558 11.75,-10.875 0.6403,-0.4228 1.2807,-0.8455 1.9404,-1.281 8.1444,-5.2241 17.1203,-9.7809 26.3096,-12.844 -3.96,-0.99 -7.92,-1.98 -12,-3 29.1062,-33.12092 100.04,-35.53433 133.266,-8.4219 z"
       fill="#f8f9fa"
       fill-opacity="1"
       id="path4" />
  </g>
  <g
     id="g7"
     transform="matrix(1.6946474,0,0,1.6946474,-195.51321,-199.31953)">
    <path
       d="m 249,218 c -0.4615,0.50145 -0.923,1.0029 -1.3984,1.51954 -18.3484,21.28553 -28.5135,52.55303 -26.6016,80.48043 0.4657,4.698 1.175,9.3523 2,14 -5.0685,-2.9554 -7.9549,-6.0983 -11.125,-11 -0.433,-0.6592 -0.8661,-1.3183 -1.3123,-1.9975 -7.4395,-11.7252 -10.8418,-26.2538 -8.1657,-40.0488 1.0011,-4.0488 2.2884,-7.9981 3.603,-11.9537 0,-0.33 0,-0.66 0,-1 -5.2878,6.9163 -8.953,13.7608 -12.0625,21.875 -0.4241,1.0783 -0.8482,2.1566 -1.2852,3.2676 -3.0345,7.8593 -5.6393,15.7987 -7.85177,23.9273 -0.54917,1.9915 -1.16782,3.9636 -1.80053,5.9301 -0.99,0.495 -0.99,0.495 -2,1 -6.75831,-20.9036 -6.46499,-39.9717 2.51171,-60.1484 3.72659,-7.1401 8.41029,-13.6199 13.48829,-19.85156 0.99,0.33 1.98,0.66 3,1 -1.65,2.63996 -3.3,5.27996 -5,7.99996 0.33,0.33 0.66,0.66 1,1 0.4383,-0.3751 0.8766,-0.7502 1.3281,-1.1367 8.0818,-6.52125 18.217,-11.06778 28.6719,-11.86326 0.6703,0.17273 1.3406,0.34547 2.0312,0.52344 4.79,1.15947 9.9315,-2.03606 14.3125,-3.78126 C 245.1002,216.972 246.3599,217.0162 249,218 Z"
       fill="#57606f"
       fill-opacity="1"
       id="path7" />
  </g>
  <g
     id="g9"
     transform="matrix(1.6946474,0,0,1.6946474,-195.51321,-199.31953)">
    <path
       d="m 317.375,183.5 c 0.7937,0.0185 1.5873,0.0369 2.405,0.0559 19.0241,0.69023 37.8762,6.88225 51.9856,19.99093 7.1944,7.8983 13.2974,17.8468 15.2344,28.4532 -0.414,2.3359 -0.414,2.3359 -1,4 -1.011,-0.825 -2.021,-1.65 -3.062,-2.5 -14.5218,-10.7764 -31.0954,-16.3111 -48.938,-18.5 -0.8521,-0.1109 -1.7041,-0.2217 -2.582,-0.336 -20.0746,-2.2271 -39.948,0.2427 -59.418,5.336 11.0283,-11.6087 27.1746,-12.6769 42.4131,-13.0933 22.671,-0.3647 22.671,-0.3647 25.5869,1.0933 -3.1148,-5.1513 -6.4835,-9.2418 -12,-12 -3.7119,-0.4125 -7.2965,-0.5143 -11,0 -2.7477,2.2789 -2.7477,2.2789 -4,5 -2.75,-0.125 -2.75,-0.125 -6,-1 -2.5387,-2.8642 -3.9679,-4.6828 -4.0625,-8.56253 2.9915,-6.86282 7.4075,-8.22211 14.4375,-7.9375 z"
       fill="#f9fafa"
       fill-opacity="1"
       id="path9" />
  </g>
  <g
     id="g10"
     transform="matrix(1.6946474,0,0,1.6946474,-195.51321,-199.31953)">
    <path
       d="m 385,234 c 0.33,0.66 0.66,1.32 1,2 -0.69,-0.281 -1.379,-0.562 -2.09,-0.8516 -9.258,-3.6534 -18.468,-6.4467 -28.222,-8.3984 -1.217,-0.2444 -1.217,-0.2444 -2.4578,-0.4937 C 323.1067,220.50368 288.6618,221.98486 260,233 c -1.99699,0.6756 -3.99612,1.3451 -6,2 5.62608,-9.5312 12.6197,-16.81146 23,-21 0.66,0.33 1.32,0.66 2,1 -1.65,1.32 -3.3,2.64 -5,4 0.9694,-0.26555 1.9388,-0.5311 2.9375,-0.80469 C 312.0846,208.82276 355.507,209.94598 385,234 Z"
       fill="#58616f"
       fill-opacity="1"
       id="path10" />
  </g>
  <g
     id="g11"
     transform="matrix(1.6946474,0,0,1.6946474,-195.51321,-199.31953)">
    <path
       d="m 273.00001,243 c 0.66,0.33 1.32,0.66 2,1 -1.0519,0.78311 -1.0519,0.78311 -2.125,1.58203 -13.1561,10.20677 -20.731,22.59997 -24.6875,38.73047 -1.1875,2.6875 -1.1875,2.6875 -3.75,3.875 -0.8044,0.2681 -1.6088,0.5363 -2.4375,0.8125 -0.33,0.99 -0.66,1.98 -1,3 -0.66,0 -1.32,0 -2,0 0.4428,16.7733 1.6512,32.3036 8.1062,47.9504 0.6809,1.6638 1.2937,3.3546 1.8938,5.0496 -0.33,0.66 -0.66,1.32 -1,2 -5.7392,-5.5266 -9.90186,-11.0272 -13.43751,-18.125 -0.32936,-0.6561 -0.65871,-1.3123 -0.99805,-1.9883 -6.38382,-13.354 -7.15522,-30.4135 -2.25195,-44.3867 1.64483,-4.3072 3.58188,-8.3999 5.6875,-12.5 0.66,0 1.32001,0 2.00001,0 0.1044,-0.5827 0.2088,-1.1653 0.3164,-1.7656 0.7865,-2.5709 1.8592,-3.9684 3.6211,-5.9844 0.5246,-0.6136 1.0493,-1.2272 1.5898,-1.8594 1.4727,-1.3906 1.4727,-1.3906 3.4727,-1.3906 -0.33,4.29 -0.66,8.58 -1,13 0.4357,-0.9294 0.8714,-1.8588 1.3203,-2.8164 5.963,-12.4916 11.9327,-19.81012 24.6797,-26.1836 z"
       fill="#181927"
       fill-opacity="1"
       id="path11" />
  </g>
  <g
     id="g13"
     transform="matrix(1.6946474,0,0,1.6946474,-195.51321,-199.31953)">
    <path
       d="m 193,313 c 4.81428,2.54061 8.4175,6.0192 12.3125,9.75 1.3429,1.2704 2.6867,2.54 4.0313,3.8086 0.6367,0.6018 1.2735,1.2037 1.9296,1.8237 2.5588,2.3974 5.192,4.7002 7.8477,6.9888 4.0147,3.4805 7.935,7.0686 11.8789,10.6289 1.6664,1.5003 3.3331,3.0003 5,4.5 10,9 10,9 12.4609,11.2227 1.7868,1.6025 3.5847,3.1926 5.3907,4.7734 1.3728,1.2085 1.3728,1.2085 2.7734,2.4414 0.8379,0.7309 1.6758,1.4618 2.5391,2.2148 C 261,373 261,373 261,375 c -2.97,0.99 -5.94,1.98 -9,3 -8.3333,-7.5 -16.6667,-15 -25,-22.5 -0.8224,-0.7399 -1.6448,-1.4798 -2.4922,-2.2422 -1.6937,-1.5249 -3.3864,-3.051 -5.0781,-4.5781 -4.4211,-3.9884 -8.8638,-7.9469 -13.3555,-11.8555 -3.2597,-2.8668 -6.4683,-5.7901 -9.67967,-8.7109 -2.40442,-2.122 -4.87464,-4.1305 -7.39453,-6.1133 0.64544,-3.4854 2.10134,-6.02819 4,-9 z"
       fill="#f8f9fa"
       fill-opacity="1"
       id="path13" />
  </g>
  <g
     id="g14"
     transform="matrix(1.6946474,0,0,1.6946474,-195.51321,-199.31953)">
    <path
       d="m 229,149 c 17.3161,-0.69111 34.7075,-0.04 49,10.99997 2.2949,2.2341 4.0958,4.4082 6,7 -1.98,-0.66 -3.96,-1.32 -6,-2 0.4125,0.4151 0.825,0.8302 1.25,1.2578 4.0912,4.3652 7.2391,8.9416 10.1875,14.1172 0.3538,0.6189 0.7077,1.2379 1.0723,1.8755 2.4902,4.4763 2.4902,4.4763 2.4902,6.7495 -7.9449,-2.0907 -14.7285,-6.8352 -21,-12 -1.3114,-0.7088 -2.6378,-1.3945 -4,-2 1,-2 1,-2 2,-3 -0.6987,-0.4821 -1.3973,-0.9642 -2.1172,-1.4609 -0.9101,-0.6316 -1.8201,-1.2633 -2.7578,-1.9141 -0.9049,-0.6264 -1.8098,-1.2529 -2.7422,-1.8984 C 260,164.99997 260,164.99997 258,162.99997 c 1.6634,-1.6634 3.7826,-1.3604 6.0625,-1.5625 0.9191,-0.0838 1.8382,-0.1675 2.7852,-0.2539 0.7102,-0.0606 1.4205,-0.1211 2.1523,-0.1836 -12.5236,-8.75573 -25.1209,-9.98053 -40,-10.99996 C 229,149.67 229,149.34 229,149 Z"
       fill="#5a616e"
       fill-opacity="1"
       id="path14" />
  </g>
  <g
     id="g16"
     transform="matrix(1.6946474,0,0,1.6946474,-195.51321,-199.31953)">
    <path
       d="m 241.00001,284 c 0.66,1.32 1.32,2.64 2,4 0.66,-0.66 1.32,-1.32 2,-2 0.66,0.33 1.32,0.66 2,1 0.41406,2.06641 0.41406,2.06641 0.625,4.5625 0.0748,0.82629 0.14953,1.65258 0.22656,2.5039 0.049,0.6381 0.098,1.2762 0.14844,1.9336 0.66,-2.31 1.32004,-4.62 2.00004,-7 1.002,3.20878 0.9672,5.6948 0.5742,9.0195 -0.6081,5.9032 -0.7656,11.7363 -0.7617,17.668 -7e-4,1.0408 -10e-4,2.0815 -0.002,3.1538 0.0504,7.4217 0.6171,14.5872 1.752,21.9165 0.4218,3.1264 0.5141,6.0922 0.4375,9.2422 -3.11204,-2.0747 -3.48082,-2.5143 -4.71879,-5.7891 -0.29125,-0.7681 -0.5825,-1.5362 -0.88257,-2.3276 -0.29656,-0.8277 -0.59313,-1.6555 -0.89868,-2.5083 -0.30752,-0.8574 -0.61505,-1.7148 -0.93189,-2.5981 -5.20125,-14.9729 -6.01563,-29.0426 -5.56811,-44.7769 0.66,0 1.32,0 2,0 0,-2.64 0,-5.28 0,-8 z"
       fill="#141826"
       fill-opacity="1"
       id="path16" />
  </g>
  <g
     id="g18"
     transform="matrix(1.6946474,0,0,1.6946474,-195.51321,-199.31953)">
    <path
       d="m 233,279 c 0.92188,2.76565 1.11785,4.38284 1.09765,7.23047 -0.003,0.80244 -0.006,1.60488 -0.01,2.43164 -0.0126,1.25009 -0.0126,1.25009 -0.0254,2.52539 -0.005,0.845 -0.009,1.69 -0.0137,2.5605 -0.0118,2.0841 -0.0297,4.168 -0.0488,6.252 1.32,-2.64 2.64,-5.28 4,-8 0.33,0 0.65999,0 0.99999,0 0.0146,0.5524 0.0292,1.1047 0.0442,1.6738 0.4754,16.2218 1.8244,31.1566 8.062,46.2766 0.6809,1.6638 1.2937,3.355 1.8938,5.0496 -0.33,0.66 -0.66,1.32 -1,2 -5.7392,-5.5266 -9.90185,-11.0272 -13.43749,-18.125 -0.32936,-0.6561 -0.65871,-1.3123 -0.99805,-1.9883 -3.89465,-8.147 -4.95186,-15.6407 -4.93945,-24.6367 -0.001,-0.9663 -0.003,-1.9326 -0.004,-2.9282 C 228.73083,291.8957 229.79828,285.77507 233,279 Z"
       fill="#f4f5f7"
       fill-opacity="1"
       id="path18" />
  </g>
  <g
     id="g21"
     transform="matrix(1.6946474,0,0,1.6946474,-195.51321,-199.31953)">
    <path
       d="m 210,242 c 1.28849,2.57699 0.77758,3.50182 0.0625,6.25 -0.88357,3.67065 -1.25713,6.9547 -1.0625,10.75 1.32,-1.32 2.64,-2.64 4.00001,-4 -0.1408,0.6614 -0.2815,1.3227 -0.4265,2.0042 -1.36859,6.8705 -1.9249,13.4347 -1.88601,20.4333 0.003,1.0041 0.005,2.0082 0.008,3.0427 0.1014,7.1894 0.89215,13.7073 3.30421,20.5198 0.3919,1.2375 0.7837,2.475 1.1875,3.75 0.2681,0.7425 0.5362,1.485 0.8125,2.25 -8.65824,-8.0224 -13.39116,-20.6257 -14.2383,-32.2773 C 201.52271,262.9358 203.34153,251.98771 210,242 Z"
       fill="#f5f6f8"
       fill-opacity="1"
       id="path21" />
  </g>
  <g
     id="g22"
     transform="matrix(1.6946474,0,0,1.6946474,-195.51321,-199.31953)">
    <path
       d="m 262.00001,296 c 0.33,0 0.66,0 0.99999,0 0.15856,1.22074 0.31711,2.44148 0.48047,3.69922 1.6988,12.27658 3.74247,24.21938 11.51956,34.30078 0.33,-4.62 0.66,-9.24 1,-14 0.33,0 0.66,0 1,0 0.1127,0.9054 0.1127,0.9054 0.2278,1.8291 2.0048,16.2558 2.0048,16.2558 5.7722,32.1709 -9.8854,-7.2574 -15.47817,-18.517 -19.00003,-30 -0.24492,-0.7941 -0.48984,-1.5881 -0.74218,-2.4062 -2.07629,-8.3052 -1.42437,-17.09954 -1.25781,-25.5938 z"
       fill="#2e3142"
       fill-opacity="1"
       id="path22" />
  </g>
  <g
     id="g25"
     transform="matrix(1.6946474,0,0,1.6946474,-195.51321,-199.31953)">
    <path
       d="m 299,325.99999 c 4.24809,-0.36272 7.91556,-0.29656 12,1 3.1462,3.60463 4.9254,7.71881 7,11.99996 1.8834,2.7644 3.9063,5.3925 6,8 -7.3524,-0.8738 -12.8095,-2.5526 -18,-8 -7,-9.45329 -7,-9.45329 -7,-12.99996 z"
       fill="#f6f8f9"
       fill-opacity="1"
       id="path25" />
  </g>
  <g
     id="g27"
     transform="matrix(1.6946474,0,0,1.6946474,-195.51321,-199.31953)">
    <path
       d="m 243.00001,187 c 2.75,0 2.75,0 6,1 1.30637,1.96171 2.1733,3.90177 3.04297,6.08984 0.92989,2.2499 0.92989,2.2499 3.95699,3.91016 3.8489,0.2099 7.3124,0.1801 11,-1 -5.7441,5.8953 -5.7441,5.8953 -10.75,6.3125 -4.42676,-0.0723 -6.89,-1.3432 -10.24996,-4.3125 -2.68443,-4.11613 -3.34866,-7.11879 -3,-12 z"
       fill="#f3f3f4"
       fill-opacity="1"
       id="path27" />
  </g>
  <ellipse
     style="fill:#000000;stroke:#000000;stroke-width:1.73235"
     id="path30"
     cx="204.94502"
     cy="479.06085"
     rx="117.82433"
     ry="17.188343" />
</svg>
